<mxfile host="65bd71144e">
    <diagram id="tO_ODK_CuJMlCSiaje3W" name="Page-1">
        <mxGraphModel dx="1598" dy="2249" grid="1" gridSize="10" guides="1" tooltips="1" connect="1" arrows="1" fold="1" page="1" pageScale="1" pageWidth="850" pageHeight="1100" background="#18141d" math="0" shadow="0">
            <root>
                <mxCell id="0"/>
                <mxCell id="1" parent="0"/>
                <mxCell id="55" value="" style="group;sketch=0;strokeColor=none;fontFamily=Helvetica;fontSize=11;fontColor=default;fillColor=none;" parent="1" vertex="1" connectable="0">
                    <mxGeometry x="-530" y="-400" width="200" height="170" as="geometry"/>
                </mxCell>
                <mxCell id="56" value="" style="rounded=1;whiteSpace=wrap;html=1;sketch=0;strokeColor=#006EAF;fillColor=#1ba1e2;arcSize=7;fontColor=#ffffff;fillOpacity=50;fontFamily=Helvetica;fontSize=11;" parent="55" vertex="1">
                    <mxGeometry width="200" height="170" as="geometry"/>
                </mxCell>
                <mxCell id="57" value="User" style="swimlane;childLayout=stackLayout;horizontal=1;startSize=30;horizontalStack=0;rounded=1;fontSize=20;fontStyle=0;strokeWidth=2;resizeParent=0;resizeLast=1;shadow=0;dashed=0;align=center;fillColor=none;fontColor=#ffffff;strokeColor=#006EAF;fillOpacity=50;sketch=0;fontFamily=Helvetica;" parent="55" vertex="1">
                    <mxGeometry width="200" height="170" as="geometry"/>
                </mxCell>
                <mxCell id="58" value="-id: String&#10;-username: String&#10;-password:String&#10;-birthDate:Date&#10;-phoneNumber:String&#10;-email:String" style="align=left;strokeColor=none;fillColor=none;spacingLeft=4;fontSize=17;verticalAlign=top;resizable=0;rotatable=0;part=1;fontColor=#ffffff;fillOpacity=50;sketch=0;fontFamily=Helvetica;" parent="57" vertex="1">
                    <mxGeometry y="30" width="200" height="140" as="geometry"/>
                </mxCell>
                <mxCell id="59" value="" style="group;sketch=0;strokeColor=none;fontFamily=Helvetica;fontSize=11;fontColor=default;fillColor=none;" parent="1" vertex="1" connectable="0">
                    <mxGeometry x="-300" y="-159.99999999999977" width="200" height="140" as="geometry"/>
                </mxCell>
                <mxCell id="60" value="" style="rounded=1;whiteSpace=wrap;html=1;sketch=0;strokeColor=#006EAF;fillColor=#1ba1e2;arcSize=7;fontColor=#ffffff;fillOpacity=50;fontFamily=Helvetica;fontSize=11;" parent="59" vertex="1">
                    <mxGeometry width="200" height="140" as="geometry"/>
                </mxCell>
                <mxCell id="61" value="Support" style="swimlane;childLayout=stackLayout;horizontal=1;startSize=30;horizontalStack=0;rounded=1;fontSize=20;fontStyle=0;strokeWidth=2;resizeParent=0;resizeLast=1;shadow=0;dashed=0;align=center;fillColor=none;fontColor=#ffffff;strokeColor=#006EAF;fillOpacity=50;sketch=0;fontFamily=Helvetica;" parent="59" vertex="1">
                    <mxGeometry width="200" height="140" as="geometry"/>
                </mxCell>
                <mxCell id="62" value="-salary: Intger" style="align=left;strokeColor=none;fillColor=none;spacingLeft=4;fontSize=17;verticalAlign=top;resizable=0;rotatable=0;part=1;fontColor=#ffffff;fillOpacity=50;sketch=0;fontFamily=Helvetica;" parent="61" vertex="1">
                    <mxGeometry y="30" width="200" height="110" as="geometry"/>
                </mxCell>
                <mxCell id="63" value="" style="group;sketch=0;strokeColor=none;fontFamily=Helvetica;fontSize=11;fontColor=default;fillColor=none;" parent="1" vertex="1" connectable="0">
                    <mxGeometry x="-525" y="-159.99999999999977" width="200" height="140" as="geometry"/>
                </mxCell>
                <mxCell id="64" value="" style="rounded=1;whiteSpace=wrap;html=1;sketch=0;strokeColor=#006EAF;fillColor=#1ba1e2;arcSize=7;fontColor=#ffffff;fillOpacity=50;fontFamily=Helvetica;fontSize=11;" parent="63" vertex="1">
                    <mxGeometry width="200" height="140" as="geometry"/>
                </mxCell>
                <mxCell id="65" value="Admin" style="swimlane;childLayout=stackLayout;horizontal=1;startSize=30;horizontalStack=0;rounded=1;fontSize=20;fontStyle=0;strokeWidth=2;resizeParent=0;resizeLast=1;shadow=0;dashed=0;align=center;fillColor=none;fontColor=#ffffff;strokeColor=#006EAF;fillOpacity=50;sketch=0;fontFamily=Helvetica;" parent="63" vertex="1">
                    <mxGeometry width="200" height="140" as="geometry"/>
                </mxCell>
                <mxCell id="66" value="-salary: Intger" style="align=left;strokeColor=none;fillColor=none;spacingLeft=4;fontSize=17;verticalAlign=top;resizable=0;rotatable=0;part=1;fontColor=#ffffff;fillOpacity=50;sketch=0;fontFamily=Helvetica;" parent="65" vertex="1">
                    <mxGeometry y="30" width="200" height="110" as="geometry"/>
                </mxCell>
                <mxCell id="67" value="" style="group;sketch=0;strokeColor=none;fontFamily=Helvetica;fontSize=11;fontColor=default;fillColor=none;" parent="1" vertex="1" connectable="0">
                    <mxGeometry x="-740" y="-159.99999999999977" width="200" height="140" as="geometry"/>
                </mxCell>
                <mxCell id="68" value="" style="rounded=1;whiteSpace=wrap;html=1;sketch=0;strokeColor=#006EAF;fillColor=#1ba1e2;arcSize=7;fontColor=#ffffff;fillOpacity=50;fontFamily=Helvetica;fontSize=11;" parent="67" vertex="1">
                    <mxGeometry width="200" height="140" as="geometry"/>
                </mxCell>
                <mxCell id="69" value="Customer" style="swimlane;childLayout=stackLayout;horizontal=1;startSize=30;horizontalStack=0;rounded=1;fontSize=20;fontStyle=0;strokeWidth=2;resizeParent=0;resizeLast=1;shadow=0;dashed=0;align=center;fillColor=none;fontColor=#ffffff;strokeColor=#006EAF;fillOpacity=50;sketch=0;fontFamily=Helvetica;" parent="67" vertex="1">
                    <mxGeometry width="200" height="140" as="geometry"/>
                </mxCell>
                <mxCell id="83" value="" style="group" parent="1" vertex="1" connectable="0">
                    <mxGeometry x="-210" y="-400" width="540" height="140" as="geometry"/>
                </mxCell>
                <mxCell id="46" value="" style="group" parent="83" vertex="1" connectable="0">
                    <mxGeometry width="200" height="140" as="geometry"/>
                </mxCell>
                <mxCell id="45" value="" style="rounded=1;whiteSpace=wrap;html=1;sketch=0;strokeColor=#006EAF;fillColor=#1ba1e2;arcSize=7;fontColor=#ffffff;fillOpacity=50;" parent="46" vertex="1">
                    <mxGeometry width="200" height="140" as="geometry"/>
                </mxCell>
                <mxCell id="27" value="Ticket" style="swimlane;childLayout=stackLayout;horizontal=1;startSize=30;horizontalStack=0;rounded=1;fontSize=20;fontStyle=0;strokeWidth=2;resizeParent=0;resizeLast=1;shadow=0;dashed=0;align=center;fillColor=none;fontColor=#ffffff;strokeColor=#006EAF;fillOpacity=50;" parent="46" vertex="1">
                    <mxGeometry width="200" height="140" as="geometry"/>
                </mxCell>
                <mxCell id="28" value="-id: String&#10;-customerId: String&#10;-title: String&#10;-message: String&#10;-status: TicketStatus" style="align=left;strokeColor=none;fillColor=none;spacingLeft=4;fontSize=17;verticalAlign=top;resizable=0;rotatable=0;part=1;fontColor=#ffffff;fillOpacity=50;" parent="27" vertex="1">
                    <mxGeometry y="30" width="200" height="110" as="geometry"/>
                </mxCell>
                <mxCell id="51" value="" style="group" parent="83" vertex="1" connectable="0">
                    <mxGeometry x="340" y="10" width="200" height="110" as="geometry"/>
                </mxCell>
                <mxCell id="48" value="" style="rounded=1;whiteSpace=wrap;html=1;sketch=0;strokeColor=#3700CC;fillColor=#6a00ff;arcSize=7;fontColor=#ffffff;fillOpacity=50;" parent="51" vertex="1">
                    <mxGeometry width="200" height="110" as="geometry"/>
                </mxCell>
                <mxCell id="49" value="TicketStatus" style="swimlane;childLayout=stackLayout;horizontal=1;startSize=30;horizontalStack=0;rounded=1;fontSize=20;fontStyle=0;strokeWidth=2;resizeParent=0;resizeLast=1;shadow=0;dashed=0;align=center;fillColor=#6a00ff;fontColor=#ffffff;strokeColor=#3700CC;fillOpacity=50;" parent="51" vertex="1">
                    <mxGeometry width="200" height="110" as="geometry"/>
                </mxCell>
                <mxCell id="50" value="Waiting&#10;InProgress&#10;Closed" style="align=left;strokeColor=none;fillColor=none;spacingLeft=4;fontSize=17;verticalAlign=top;resizable=0;rotatable=0;part=1;fontColor=#ffffff;fillOpacity=50;" parent="49" vertex="1">
                    <mxGeometry y="30" width="200" height="80" as="geometry"/>
                </mxCell>
                <mxCell id="52" style="edgeStyle=orthogonalEdgeStyle;html=1;entryX=0;entryY=0.364;entryDx=0;entryDy=0;entryPerimeter=0;strokeColor=#FFFFFF;strokeWidth=2;" parent="83" source="27" target="50" edge="1">
                    <mxGeometry relative="1" as="geometry"/>
                </mxCell>
                <mxCell id="53" value="&lt;font style=&quot;font-size: 16px;&quot;&gt;n&lt;/font&gt;" style="text;html=1;align=center;verticalAlign=middle;resizable=0;points=[];autosize=1;strokeColor=none;fillColor=none;fontSize=11;fontFamily=Helvetica;fontColor=default;" parent="83" vertex="1">
                    <mxGeometry x="200" y="40" width="30" height="30" as="geometry"/>
                </mxCell>
                <mxCell id="54" value="&lt;font style=&quot;font-size: 16px;&quot;&gt;1&lt;/font&gt;" style="text;html=1;align=center;verticalAlign=middle;resizable=0;points=[];autosize=1;strokeColor=none;fillColor=none;fontSize=11;fontFamily=Helvetica;fontColor=default;" parent="83" vertex="1">
                    <mxGeometry x="300" y="45" width="30" height="30" as="geometry"/>
                </mxCell>
                <mxCell id="86" style="edgeStyle=orthogonalEdgeStyle;shape=connector;rounded=1;html=1;entryX=0.5;entryY=1;entryDx=0;entryDy=0;labelBackgroundColor=default;strokeColor=#FFFFFF;strokeWidth=2;fontFamily=Helvetica;fontSize=16;fontColor=default;endArrow=classic;" parent="1" source="61" target="58" edge="1">
                    <mxGeometry relative="1" as="geometry">
                        <Array as="points">
                            <mxPoint x="-200" y="-180"/>
                            <mxPoint x="-430" y="-180"/>
                        </Array>
                    </mxGeometry>
                </mxCell>
                <mxCell id="87" style="edgeStyle=orthogonalEdgeStyle;shape=connector;rounded=1;html=1;entryX=0.5;entryY=1;entryDx=0;entryDy=0;labelBackgroundColor=default;strokeColor=#FFFFFF;strokeWidth=2;fontFamily=Helvetica;fontSize=16;fontColor=default;endArrow=classic;" parent="1" source="65" target="58" edge="1">
                    <mxGeometry relative="1" as="geometry">
                        <Array as="points">
                            <mxPoint x="-430" y="-180"/>
                            <mxPoint x="-430" y="-180"/>
                        </Array>
                    </mxGeometry>
                </mxCell>
                <mxCell id="88" style="edgeStyle=orthogonalEdgeStyle;shape=connector;rounded=1;html=1;labelBackgroundColor=default;strokeColor=#FFFFFF;strokeWidth=2;fontFamily=Helvetica;fontSize=16;fontColor=default;endArrow=classic;" parent="1" source="69" edge="1">
                    <mxGeometry relative="1" as="geometry">
                        <mxPoint x="-430" y="-230" as="targetPoint"/>
                        <Array as="points">
                            <mxPoint x="-640" y="-180"/>
                            <mxPoint x="-430" y="-180"/>
                        </Array>
                    </mxGeometry>
                </mxCell>
            </root>
        </mxGraphModel>
    </diagram>
</mxfile>